<?xml version="1.0" encoding="UTF-8"?>
<!DOCTYPE svg PUBLIC "-//W3C//DTD SVG 1.1//EN" "http://www.w3.org/Graphics/SVG/1.1/DTD/svg11.dtd">
<!-- Creator: CorelDRAW X8 -->
<svg xmlns="http://www.w3.org/2000/svg" xml:space="preserve" width="84.9427mm" height="37.4386mm" version="1.1" style="shape-rendering:geometricPrecision; text-rendering:geometricPrecision; image-rendering:optimizeQuality; fill-rule:evenodd; clip-rule:evenodd"
viewBox="0 0 2156 950"
 xmlns:xlink="http://www.w3.org/1999/xlink">
 <defs>
  <style type="text/css">
   <![CDATA[
    .fil2 {fill:#099C00}
    .fil0 {fill:white}
    .fil3 {fill:#4D4D4D;fill-rule:nonzero}
    .fil1 {fill:#D60B0B;fill-rule:nonzero}
   ]]>
  </style>
 </defs>
 <g id="Capa_x0020_1">
  <metadata id="CorelCorpID_0Corel-Layer"/>
  <rect class="fil0" width="2156" height="950"/>
  <path class="fil1" d="M433 538l86 -280 78 0 -85 280 -79 0zm681 -77c0,0 0,1 0,1l0 0c-2,8 2,12 13,12l27 0c8,0 13,-2 17,-5l0 -1c0,0 1,-1 1,-2l1 0c0,0 0,0 0,-1l0 0 1 0 0 -1 0 0c0,-1 1,-2 1,-3l39 -126c0,-1 0,-1 0,-2l0 0c2,-8 -2,-12 -13,-12l-27 0c-8,0 -13,2 -17,6l0 0c-1,1 -1,1 -2,2l0 0c0,1 0,1 0,1l-1 1 0 0 0 0 0 0c0,1 -1,2 -1,4l-39 126zm-35 -145c12,-38 42,-58 91,-58l51 0 66 97 -38 124c-12,39 -42,58 -91,59l-73 0c-22,0 -38,-5 -48,-13 -12,-9 -14,-25 -8,-46l50 -163zm-692 50c49,1 68,19 57,56l-18 57c-11,39 -42,58 -91,58l-73 0c-47,0 -66,-18 -56,-55l12 -40 79 0 -6 21c-2,7 2,11 13,11l28 0c11,0 18,-4 20,-13l6 -20c2,-8 -2,-11 -13,-11l-50 0c-47,-1 -66,-19 -56,-56l17 -58c12,-38 43,-58 92,-58l72 0c49,0 68,20 56,58l-11 37 -80 0 7 -21c2,-7 -3,-11 -14,-11l-27 0c-11,0 -18,4 -21,13l-6 21c-2,8 2,11 13,11l50 0zm396 172l86 -280 78 0 -66 217 124 0 -19 63 -203 0zm-96 -170l123 0 -34 111c-11,39 -42,58 -91,58l-75 0c-49,0 -67,-19 -55,-58l49 -163c12,-38 43,-58 92,-58l75 0c47,0 66,19 56,55l-12 38 -79 0 6 -18c2,-8 -3,-12 -13,-12l-30 0c-11,0 -18,5 -21,14l-38 126c-3,9 1,13 12,13l30 0c11,0 17,-4 20,-11l10 -33 -44 0 19 -62z"/>
  <path class="fil2" d="M1785 257l57 0 0 281 -58 0 -24 -36 0 -208 25 -37zm-562 -32l104 0 66 97 43 -65 4 0 50 74 -45 67 45 67 -50 73 -4 0 -43 -64 -44 64 -103 0 95 -140 -118 -173zm559 0l-104 0 -66 97 -44 -65 -103 0 95 141 -95 140 104 0 43 -64 44 64 103 0 -95 -140 118 -173z"/>
  <path class="fil3" d="M365 642c0,-9 3,-15 8,-20 6,-5 15,-7 27,-7 8,0 15,1 20,2l0 22c-5,-2 -11,-2 -17,-2 -6,0 -10,0 -12,2 -1,1 -2,3 -2,5l0 54c0,5 4,8 12,8 8,0 15,-1 20,-2l0 21c-6,2 -13,3 -21,3 -12,0 -21,-3 -27,-7 -6,-5 -8,-12 -8,-20l0 -59zm111 2c0,-5 -3,-8 -9,-8 -7,0 -10,3 -10,8l0 54c0,6 3,8 10,8 6,0 9,-2 9,-8l0 -54zm-43 -1c0,-9 3,-16 9,-21 5,-5 14,-8 25,-8 11,0 19,3 25,8 5,5 8,12 8,21l0 57c0,8 -3,15 -8,21 -6,5 -14,7 -25,7 -11,0 -20,-2 -25,-7 -6,-6 -9,-13 -9,-21l0 -57zm130 -27l23 0 0 111 -23 0c-16,-41 -25,-65 -27,-73 2,8 3,23 3,43l0 30 -24 0 0 -111 24 0 15 37c6,16 10,28 12,36 -2,-10 -3,-25 -3,-45l0 -28zm36 26c0,-9 3,-15 9,-20 5,-5 14,-7 25,-7 10,0 19,1 24,3l0 23c-7,-2 -14,-4 -22,-4 -5,0 -8,1 -9,2 -2,2 -2,3 -2,6l0 2c0,3 0,6 1,7 1,1 4,3 7,5l18 10c9,5 13,12 13,22l0 10c0,8 -3,15 -9,20 -7,4 -16,7 -27,7 -12,0 -21,-2 -26,-4l0 -23c7,3 15,4 24,4 9,0 14,-2 14,-8l0 -2c0,-2 -1,-4 -2,-5 -1,-2 -2,-3 -5,-5l-17 -9c-11,-6 -16,-14 -16,-24l0 -10zm135 -26l0 21 -20 0 0 90 -25 0 0 -90 -20 0 0 -21 65 0zm34 71l0 40 -24 0 0 -111 37 0c8,0 15,2 20,6 5,4 7,10 7,18l0 21c0,13 -4,21 -13,24l18 42 -27 0 -15 -40 -3 0zm0 -51l0 32 10 0c2,0 4,-1 5,-2 1,-1 1,-3 1,-6l0 -18c0,-2 0,-4 -1,-4 -1,-1 -3,-2 -5,-2l-10 0zm98 -20l24 0 0 84c0,8 -3,15 -9,21 -5,5 -14,7 -25,7 -11,0 -19,-2 -24,-7 -6,-5 -9,-12 -9,-21l0 -84 24 0 0 82c0,6 3,8 9,8 7,0 10,-2 10,-8l0 -82zm40 0l24 0 0 111 -24 0 0 -111zm130 0l0 111 -23 0 0 -39c0,-11 1,-22 3,-33l-15 44 -19 0 -15 -44c2,10 3,21 3,33l0 39 -23 0 0 -111 25 0 20 56 20 -56 24 0zm59 28c0,-5 -3,-8 -10,-8 -6,0 -9,3 -9,8l0 54c0,6 3,8 9,8 7,0 10,-2 10,-8l0 -54zm-43 -1c0,-9 3,-16 8,-21 6,-5 14,-8 25,-8 11,0 20,3 25,8 6,5 9,12 9,21l0 57c0,8 -3,15 -9,21 -5,5 -14,7 -25,7 -11,0 -19,-2 -25,-7 -5,-6 -8,-13 -8,-21l0 -57zm78 -1c0,-9 3,-15 9,-20 6,-5 14,-7 25,-7 11,0 19,1 24,3l0 23c-7,-2 -14,-4 -22,-4 -5,0 -7,1 -9,2 -1,2 -2,3 -2,6l0 2c0,3 0,6 1,7 1,1 4,3 7,5l18 10c9,5 13,12 13,22l0 10c0,8 -3,15 -9,20 -7,4 -16,7 -27,7 -12,0 -21,-2 -26,-4l0 -23c7,3 15,4 24,4 9,0 14,-2 14,-8l0 -2c0,-2 -1,-4 -2,-5 -1,-2 -2,-3 -5,-5l-17 -9c-11,-6 -16,-14 -16,-24l0 -10zm107 -26l55 0 0 21 -31 0 0 27 28 0 0 22 -28 0 0 41 -24 0 0 -111zm108 0l24 0 0 84c0,8 -2,15 -8,21 -6,5 -14,7 -25,7 -11,0 -19,-2 -25,-7 -5,-5 -8,-12 -8,-21l0 -84 24 0 0 82c0,6 3,8 9,8 6,0 9,-2 9,-8l0 -82zm98 0l0 21 -20 0 0 90 -24 0 0 -90 -20 0 0 -21 64 0zm53 0l24 0 0 84c0,8 -3,15 -9,21 -5,5 -14,7 -25,7 -11,0 -19,-2 -25,-7 -5,-5 -8,-12 -8,-21l0 -84 24 0 0 82c0,6 3,8 9,8 6,0 10,-2 10,-8l0 -82zm64 71l0 40 -24 0 0 -111 36 0c9,0 15,2 20,6 5,4 8,10 8,18l0 21c0,13 -5,21 -13,24l17 42 -26 0 -15 -40 -3 0zm0 -51l0 32 9 0c3,0 4,-1 5,-2 1,-1 2,-3 2,-6l0 -18c0,-2 -1,-4 -2,-4 -1,-1 -3,-2 -5,-2l-9 0zm97 8c0,-5 -3,-8 -10,-8 -6,0 -9,3 -9,8l0 54c0,6 3,8 9,8 7,0 10,-2 10,-8l0 -54zm-43 -1c0,-9 3,-16 8,-21 6,-5 14,-8 25,-8 11,0 20,3 25,8 6,5 9,12 9,21l0 57c0,8 -3,15 -9,21 -5,5 -14,7 -25,7 -11,0 -19,-2 -25,-7 -5,-6 -8,-13 -8,-21l0 -57z"/>
 </g>
</svg>
